<svg xmlns="http://www.w3.org/2000/svg" style="width:0; height:0; visibility:hidden;"> 
  <symbol xmlns="http://www.w3.org/2000/svg" id="logo" viewBox="0 0 112 30">
    <path d="  M83.5,7.7h-3.3c-0.1,0-0.2,0.1-0.3,0.2l-2.8,4.5c-0.1,0.2-0.5,0.2-0.6,0l-2.8-4.5c-0.1-0.1-0.2-0.2-0.3-0.2h-3.3  c-0.2,0-0.4,0.2-0.4,0.4v12.6c0,0.2,0.2,0.4,0.4,0.4H73c0.2,0,0.4-0.2,0.4-0.4v-6.1c0-0.3,0.5-0.5,0.6-0.2l2.7,4.2h0.1l2.8-4.2  c0.2-0.3,0.6-0.2,0.6,0.2v6.1c0,0.2,0.2,0.4,0.4,0.4h3c0.2,0,0.4-0.2,0.4-0.4V8.1C83.8,7.9,83.7,7.7,83.5,7.7 M64.3,14.5  c0-2-1.6-3.7-3.7-3.7c-2,0-3.7,1.6-3.7,3.7s1.6,3.7,3.7,3.7C62.7,18.1,64.3,16.5,64.3,14.5 M67.8,14.4c0,3.8-3.1,6.9-7.2,6.9  c-1.2,0-2.2-0.3-3.2-0.7L52,28.7l-1.2-0.8l5.4-8.1c-1.7-1.3-2.7-3.2-2.7-5.5c0-3.8,3.1-6.9,7.2-6.9c1.2,0,2.4,0.3,3.4,0.8L69.5,0  l1.2,0.8L65.2,9C66.8,10.2,67.8,12.2,67.8,14.4 M108.3,12.6c0-1.1-0.8-1.7-2.1-1.7h-1.4c-0.2,0-0.4,0.2-0.4,0.4V14  c0,0.2,0.2,0.4,0.4,0.4h1.4C107.5,14.3,108.3,13.6,108.3,12.6 M112,12.4c0,3.1-2.4,4.8-5.7,4.8h-1.5c-0.2,0-0.4,0.2-0.4,0.4v3.1  c0,0.2-0.2,0.4-0.4,0.4h-3c-0.2,0-0.4-0.2-0.4-0.4V8.1c0-0.2,0.2-0.4,0.4-0.4h5.3C109.8,7.7,112,9.4,112,12.4 M98.1,7.7h-2.9  c-0.1,0-0.2,0.1-0.3,0.2l-4.4,6.4c-0.2,0.3-0.6,0.1-0.6-0.2v-6c0-0.2-0.2-0.4-0.4-0.4h-2.9c-0.2,0-0.4,0.2-0.4,0.4v12.6  c0,0.2,0.2,0.4,0.4,0.4h2.9c0.1,0,0.2-0.1,0.3-0.2l4.4-6.4c0.2-0.3,0.6-0.1,0.6,0.2v6c0,0.2,0.2,0.4,0.4,0.4h2.9  c0.2,0,0.4-0.2,0.4-0.4V8.1C98.4,7.9,98.3,7.7,98.1,7.7 M26.1,7.7h-3.2c-0.1,0-0.3,0.1-0.3,0.2l-2.4,5.4c-0.1,0.3-0.5,0.3-0.6,0  l-2.6-5.4c-0.1-0.1-0.2-0.2-0.3-0.2h-3.3C13,7.7,12.8,8,13,8.2l4.8,9.1c0.1,0.1,0,0.3-0.1,0.4c-0.3,0.3-0.7,0.4-1,0.4  c-0.3,0-0.8-0.1-1.2-0.3c-0.2-0.1-0.4,0-0.5,0.1L14,20c-0.1,0.2,0,0.4,0.1,0.5c0.8,0.4,1.8,0.7,2.9,0.7c2.1,0,3.3-1,4.5-3.3l4.9-9.6  C26.5,8,26.4,7.7,26.1,7.7 M52.7,18.6c0.1-0.2,0.1-0.4-0.1-0.5l-2.2-1.6c-0.1-0.1-0.3-0.1-0.5,0c-0.7,0.8-1.5,1.4-2.8,1.4  c-1.9,0-3.2-1.6-3.2-3.6c0-2,1.3-3.6,3.2-3.6c1.2,0,2,0.5,2.7,1.3c0.1,0.1,0.3,0.1,0.5,0l2.2-1.7c0.2-0.1,0.2-0.3,0.1-0.5  c-1.2-1.5-2.8-2.5-5.4-2.5c-4,0-7,3-7,6.9c0,4,3.1,6.9,6.9,6.9C49.8,21.3,51.5,20.1,52.7,18.6 M35.4,12.6c0-1.1-0.8-1.7-2.1-1.7  h-1.4c-0.2,0-0.4,0.2-0.4,0.4V14c0,0.2,0.2,0.4,0.4,0.4h1.4C34.6,14.3,35.4,13.6,35.4,12.6 M39.1,12.4c0,3.1-2.4,4.8-5.7,4.8h-1.5  c-0.2,0-0.4,0.2-0.4,0.4v3.1c0,0.2-0.2,0.4-0.4,0.4h-3c-0.2,0-0.4-0.2-0.4-0.4V8.1c0-0.2,0.2-0.4,0.4-0.4h5.3  C36.9,7.7,39.1,9.4,39.1,12.4 M12.4,20.5c0.2,0.2,0,0.6-0.3,0.6H8.6c-0.1,0-0.2-0.1-0.3-0.2l-3-4.4c-0.1-0.2-0.4-0.2-0.6,0l-1,1.1  c-0.1,0.1-0.1,0.1-0.1,0.2v3c0,0.2-0.2,0.4-0.4,0.4h-3C0.2,21,0,20.9,0,20.7V8.1c0-0.2,0.2-0.4,0.4-0.4h3c0.2,0,0.4,0.2,0.4,0.4v4.1  c0,0.3,0.4,0.5,0.6,0.2l3.9-4.5c0.1-0.1,0.2-0.1,0.3-0.1h3.4c0.3,0,0.5,0.4,0.3,0.6l-4.3,4.9c-0.1,0.1-0.1,0.3,0,0.4L12.4,20.5  L12.4,20.5z"/> 
  </symbol>
  <symbol id="telegram" viewBox="0 0 20 16">
       <path d="M18.5,0L0.3,6.7c-0.4,0.2-0.4,0.8,0,0.9l4.4,1.6l1.7,5.3
  C6.6,14.9,7,15,7.3,14.8l2.5-1.9c0.3-0.2,0.6-0.2,0.9,0l4.5,3.1c0.3,0.2,0.7,0,0.8-0.3l3.3-15C19.3,0.2,18.9-0.1,18.5,0L18.5,0z
   M15.1,3.5L7.9,9.9c-0.2,0.2-0.4,0.5-0.5,0.9l-0.2,1.7c0,0.2-0.4,0.3-0.4,0L5.8,9.4C5.7,9,5.9,8.6,6.2,8.4l8.7-5.1
  C15,3.2,15.2,3.4,15.1,3.5L15.1,3.5z"/> 
    </symbol>
    <symbol id="twitter" viewBox="0 0 18 15">
       <path d="M17.6,1.6c-0.7,0.3-1.4,0.5-2.1,0.5c0.7-0.4,1.4-1.1,1.6-2.1
  c-0.7,0.4-1.5,0.7-2.3,0.8c-0.7-0.5-1.7-1-2.6-1c-2.1,0-3.7,1.6-3.7,3.6c0,0.3,0,0.5,0.1,0.8C5.6,4.3,3,2.9,1.2,0.7
  C1,1.2,0.7,1.8,0.7,2.5c0,1.2,0.7,2.3,1.6,3c-0.5,0-1.1-0.1-1.6-0.4l0,0c0,1.8,1.2,3.2,2.9,3.6c-0.3,0-0.5,0.1-1,0.1
  c-0.3,0-0.4,0-0.7,0c0.4,1.4,1.8,2.5,3.4,2.5c-1.2,0.8-2.7,1.5-4.5,1.5c-0.3,0-0.5,0-0.8,0c1.6,1,3.4,1.6,5.5,1.6
  c6.6,0,10.3-5.5,10.3-10.3V3.7C16.5,3,17,2.5,17.6,1.6L17.6,1.6L17.6,1.6z"/> 
    </symbol>
    <symbol id="vk" viewBox="0 0 11 14">
       <path d="M7.8,6.1L7.8,6.1
  c1.1-0.4,2-1.4,2-3c0-2-1.7-3.1-3.5-3.1H0v13.6h5.8c3.5,0,4.9-2.2,4.9-4.1C10.7,7.3,9.5,6.5,7.8,6.1L7.8,6.1z M3.2,2.4H4
  c0.5,0,1.4-0.1,1.8,0.2c0.4,0.3,0.7,0.7,0.7,1.2c0,0.5-0.2,1.2-0.6,1.5C5.4,5.6,4.8,5.6,4.2,5.6h-1V2.4z M6.6,10.9
  c-0.5,0.3-1.2,0.3-1.8,0.3H3.2V8h1.7c0.5,0,1.1,0,1.6,0.3C7,8.5,7.3,8.9,7.3,9.5C7.3,10.1,7.1,10.6,6.6,10.9z"/> 
    </symbol>
</svg>