<?xml version="1.0" encoding="utf-8"?>
<!-- Generator: Adobe Illustrator 21.0.1, SVG Export Plug-In . SVG Version: 6.00 Build 0)  -->
<svg version="1.1" id="Слой_1" xmlns="http://www.w3.org/2000/svg" xmlns:xlink="http://www.w3.org/1999/xlink" x="0px" y="0px"
	 viewBox="0 0 20 5" style="enable-background:new 0 0 20 5;" xml:space="preserve">
<style type="text/css">
	.st0{fill:#999999;}
</style>
<path id="path15653" class="st0" d="M2,1.004c-1.105,0-2.001,0.894-2.001,2.002c0,1.104,0.896,1.998,2.001,1.998
	c1.104,0,2-0.895,2-1.998C4.001,1.898,3.105,1.004,2,1.004z M10,1.004C8.895,1.004,8,1.898,8,3.006C8,4.109,8.895,5.004,10,5.004
	C11.104,5.004,12,4.109,12,3.006C12,1.898,11.104,1.004,10,1.004z M18,1.004C16.895,1.004,16,1.898,16,3.006
	C16,4.109,16.895,5.004,18,5.004C19.105,5.004,20,4.109,20,3.006C20,1.898,19.105,1.004,18,1.004z"/>
</svg>
