<svg viewBox="0 0 18 15"><title>twitter</title>
  <path d="M17.6,1.6c-0.7,0.3-1.4,0.5-2.1,0.5c0.7-0.4,1.4-1.1,1.6-2.1
  c-0.7,0.4-1.5,0.7-2.3,0.8c-0.7-0.5-1.7-1-2.6-1c-2.1,0-3.7,1.6-3.7,3.6c0,0.3,0,0.5,0.1,0.8C5.6,4.3,3,2.9,1.2,0.7
  C1,1.2,0.7,1.8,0.7,2.5c0,1.2,0.7,2.3,1.6,3c-0.5,0-1.1-0.1-1.6-0.4l0,0c0,1.8,1.2,3.2,2.9,3.6c-0.3,0-0.5,0.1-1,0.1
  c-0.3,0-0.4,0-0.7,0c0.4,1.4,1.8,2.5,3.4,2.5c-1.2,0.8-2.7,1.5-4.5,1.5c-0.3,0-0.5,0-0.8,0c1.6,1,3.4,1.6,5.5,1.6
  c6.6,0,10.3-5.5,10.3-10.3V3.7C16.5,3,17,2.5,17.6,1.6L17.6,1.6L17.6,1.6z"/> 
</svg>